<svg width="521" height="519" xmlns="http://www.w3.org/2000/svg" xmlns:xlink="http://www.w3.org/1999/xlink" xml:space="preserve" overflow="hidden"><g transform="translate(-88 -101)"><g><g><g><path d="M200.306 176.741C198.699 177.948 202.202 179.635 201.892 179.545 202.022 184.516 201.304 189.626 202.99 192.151 204.058 193.718 207.402 194.876 207.971 193.369 208.53 191.852 211.065 188.768 211.634 188.249 212.682 187.32 211.764 186.472 210.875 187.38 209.039 189.317 208.021 188.428 206.673 187.141 206.025 186.402 205.775 179.446 206.244 179.236 206.244 179.236 209.598 178.747 210.406 178.747 211.025 178.747 210.975 176.811 210.326 176.811 209.318 176.811 206.324 176.841 206.154 176.371 205.775 175.413 206.753 170.722 206.923 168.616 207.063 167.139 206.264 166.66 205.865 168.037 205.426 169.405 202.212 175.363 200.306 176.741M209.188 158.995C211.145 158.835 214.289 160.003 217.772 159.713 221.924 159.414 225.188 152.986 223.391 147.976 221.724 143.225 216.425 144.063 212.861 142.926 209.578 142.037 208.23 139.971 211.803 137.626 216.005 134.911 221.225 139.263 221.724 140.181 222.503 141.568 223.142 141.548 223.142 139.742 223.251 135.809 222.892 138.035 222.503 134.332 222.373 133.015 221.405 132.895 221.315 134.162 221.225 135.46 219.648 135.061 218.471 135.061 217.263 135.041 213.75 134.502 210.726 136.189 208.789 137.306 204.388 140.76 206.853 144.912 208.3 147.327 216.764 149.293 218.87 150.691 220.986 152.068 221.465 155.621 219.439 157.258 216.914 159.254 210.067 157.568 209.019 156.36 207.631 154.823 207.102 153.565 206.813 151.779 206.524 149.952 204.997 150.112 204.997 151.779 204.997 153.436 205.386 159.135 205.685 160.462 205.955 161.849 207.352 161.39 207.472 160.342 207.622 159.354 208.27 159.065 209.188 158.995M218.86 164.464C218.101 165.961 216.874 167.329 214.638 168.347 215.995 169.535 217.772 171.062 218.94 171.83 220.277 170.333 221.515 168.946 223.062 167.489 221.535 167.189 219.758 166.421 218.86 164.464M197.75 162.269C199.168 161.131 200.226 159.214 200.805 158.765 201.902 157.857 200.994 156.929 200.076 157.807 199.337 158.526 197.401 156.849 197.321 156.729 196.692 155.991 195.774 146.329 196.203 146.11 196.203 146.11 202.352 145.351 203.16 145.371 203.769 145.411 203.849 143.455 203.19 143.425 202.192 143.425 197.501 144.073 197.331 143.614 197.072 142.596 196.443 139.153 197.98 136.189 198.709 134.891 197.96 133.653 197.481 134.971 196.942 136.318 193.089 142.297 190.594 143.275 188.568 144.113 188.798 144.573 190.105 144.912 191.143 145.111 192.221 146.359 192.021 146.339 191.812 151.29 191.333 157.408 192.87 160.003 193.838 161.64 196.523 163.336 197.75 162.269M180.753 172.479C179.206 173.936 177.978 175.274 175.713 177.07 176.771 178.278 178.557 179.805 178.717 181.891 178.857 183.997 178.777 193.748 178.907 196.193 180.563 196.193 180.274 196.373 183.119 196.253 182.839 194.596 183.079 181.941 183.079 180.124 184.147 179.106 184.296 178.947 185.524 178.038 186.402 178.807 188.468 179.266 188.468 180.623 188.468 181.991 188.877 187.999 188.398 190.215 187.8 192.92 188.069 194.876 189.526 197.611 190.634 196.373 194.786 193.479 195.684 192.75 196.573 191.992 196.114 191.403 194.966 191.722 193.738 191.992 193.519 192.221 193.519 191.453 193.519 189.985 192.94 183.398 192.85 179.176 192.7 174.954 190.634 173.717 189.456 173.128 188.249 174.475 185.544 176.162 183.937 177.539 182.709 176.631 182.1 174.615 180.753 172.479M164.404 175.363C165.123 177.2 167.419 180.693 168.457 181.312 166.67 183.099 162.289 186.073 161.051 186.941 158.815 184.127 157.607 179.525 164.404 175.363M156.689 183.947C155.621 191.872 163.097 196.593 166.69 198.12 167.598 196.303 169.435 193.339 171.231 191.263 172.599 189.666 171.092 189.247 169.864 190.474 168.207 192.291 163.267 190.564 161.959 188.179 164.345 186.382 170.563 181.172 173.277 178.957 171.491 177.28 168.726 173.118 168.297 170.722 165.882 172.349 157.897 175.703 156.689 183.947M154.633 145.84C151.749 150.252 150.172 157.198 155.172 161.27 157.528 163.227 159.474 164.764 164.265 163.905 165.223 161.999 165.642 161.37 167.329 159.174 164.025 159.713 161.47 159.115 159.055 157.288 154.084 153.436 155.621 147.227 157.088 145.102 159.773 141.119 163.576 146.818 164.265 147.587 165.153 146.529 166.68 145.022 168.177 143.844 166.69 141.878 165.482 140.061 164.484 138.883 161.3 140.031 156.629 142.886 154.633 145.84M177.719 134.073C177.34 133.584 176.611 132.795 176.571 131.807 176.571 131.158 176.651 124.351 176.651 123.493 176.651 122.695 175.044 122.774 175.044 123.493 174.974 124.711 175.154 126.767 174.066 128.443 171.082 133.075 165.393 134.971 161.39 129.302 160.033 127.425 159.703 124.571 159.534 122.545 159.264 119.83 161.32 116.317 161.44 115.997 166.53 109.33 173.597 114.271 174.166 116.995 174.545 118.802 174.954 121.018 174.954 122.185 174.914 122.954 176.571 122.874 176.611 122.076 176.611 121.247 176.661 110.997 176.661 110.278 176.691 109.61 175.314 109.39 175.284 110.278 175.204 111.895 174.246 112.035 173.008 111.636 170.433 110.867 164.724 109.64 161.41 111.546 158.486 113.263 154.014 117.285 154.094 122.355 154.184 130.679 157.328 131.378 160.981 133.624 164.404 135.64 169.125 134.332 173.447 133.085 175.164 132.615 175.373 133.693 176.192 134.921 177.589 136.777 178.717 135.58 177.719 134.073M180.164 157.987C180.144 158.596 180.164 159.115 180.174 159.674 179.565 159.823 178.887 159.963 178.038 160.392 176.89 159.424 171.441 157.637 175.014 154.763 177.2 156.05 178.048 155.042 180.164 153.745 180.184 155.581 180.164 157.328 180.164 157.987M180.134 152.338C177 154.374 176.002 154.304 173.846 151.869 172.778 150.631 172.868 148.285 173.367 147.397 174.335 145.87 176.052 144.333 176.861 144.343 177.569 144.393 180.094 147.457 179.915 148.794 180.044 149.543 180.094 150.9 180.134 152.338M179.915 140.87C177.1 141.129 173.048 144.413 171.84 147.247 171.351 148.375 172.05 152.457 172.559 152.907 172.928 153.226 173.218 153.445 173.537 153.705 171.69 155.422 169.964 156.879 170.014 159.424 170.094 161.879 172.04 164.065 174.565 165.203 175.922 163.147 178.018 161.889 180.274 161.36 180.464 163.327 180.923 164.754 182.2 165.742 183.129 164.724 186.821 161.52 187.54 160.801 188.319 160.063 187.74 159.174 186.821 160.063 186.282 160.562 184.955 159.813 184.566 159.174 184.566 158.107 184.566 146.808 185.045 146.289 183.368 144.493 181.781 140.66 179.915 140.87M200.335 113.283C201.443 112.195 200.266 111.406 199.278 112.354 198.549 111.476 196.673 109.55 195.674 108.372 194.606 109.26 192.181 110.717 190.814 111.476 189.746 110.258 188.438 110.258 186.312 108.592 185.135 109.49 182.53 111.406 181.122 113.113 183.598 113.832 185.464 113.981 185.624 116.097 185.714 117.834 185.444 128.473 185.584 130.43 186.911 130.719 188.528 130.589 190.405 130.49 190.554 128.962 190.484 115.608 190.484 114.131 191.203 113.732 191.932 113.342 192.281 113.013 193.059 113.612 194.606 115.868 195.854 116.606 196.832 115.898 199.278 114.341 200.335 113.283M207.821 117.954C206.184 112.704 206.803 110.897 210.067 108.302 210.795 110.109 212.672 111.416 213.72 112.045 211.873 113.832 209.009 117.075 207.821 117.954M218.431 124.451C211.963 126.078 208.929 120.898 208.29 119.511 210.905 116.836 215.357 112.464 218.061 110.238 216.275 108.592 215.536 105.857 212.352 105.617 209.578 105.697 203.11 108.841 201.972 117.055 200.884 124.94 208.29 129.202 214.149 129.442 216.105 129.442 218.551 126.906 219.758 126.318 222.363 125.04 221.395 123.772 218.431 124.451M236.636 114.88C236.247 115.189 235.139 116.087 233.941 117.045 233.232 117.165 232.514 117.245 231.785 117.155 229.569 116.846 228.501 115.169 227.483 113.832 226.425 112.424 229.15 111.266 230.488 111.406 231.845 111.596 234.849 113.203 236.636 114.88M231.975 121.088C233.452 121.756 234.939 122.415 236.576 123.373 238.931 124.711 237.724 127.246 235.179 128.424 232.594 129.611 227.972 126.268 227.254 124.9 228.192 124.072 229.979 122.665 231.975 121.088M243.083 111.975C241.287 110.747 239.341 107.763 235.009 107.564 230.657 107.394 225.747 111.316 224.15 113.792 222.034 117.055 224.629 119.93 227.394 122.046 225.627 123.563 223.162 125.898 220.886 128.024 221.794 129.012 226.775 131.368 229.569 131.298 233.801 131.208 237.704 129.022 240.109 127.086 244.501 123.613 242.984 119.92 238.512 117.305 238.083 117.045 237.674 116.975 237.245 116.886 240.029 114.72 242.455 112.754 243.083 111.975M248.453 137.227 245.818 134.492 243.163 136.877 243.213 140.161 244.83 141.828 246.477 141.828 248.443 140.041 248.443 137.227ZM247.275 118.692C246.257 118.632 244.66 121.447 250.809 121.207 251.777 121.177 252.485 118.992 247.275 118.692M247.196 122.375C246.138 122.305 244.541 124.242 250.709 124.88 251.667 124.99 252.954 122.734 247.196 122.375M251.208 163.676 253.493 161.221C250.938 160.741 250.938 160.911 249.581 159.684L249.681 147.886 247.455 144.592 246.267 144.752 241.137 149.483C239.76 150.731 240.997 151.31 242.534 149.942L245.179 151.559 245.279 162.668C245.549 163.995 246.716 164.454 248.353 166.141L251.208 163.676ZM235.508 184.666C237.414 185.953 238.512 185.783 240.918 185.554 240.818 186.851 240.728 188.049 240.728 188.588 240.728 189.157 240.967 189.626 241.127 190.105 239.88 190.554 238.303 190.814 237.075 191.433 235.967 190.464 231.895 187.68 235.508 184.666M241.017 184.296C238.931 184.336 237.145 183.697 234.869 181.701 234.44 181.332 234.031 178.757 234.52 177.909 235.518 176.322 235.518 175.823 236.396 175.842 237.075 175.842 241.267 178.378 241.037 179.725 241.207 180.693 241.127 182.51 241.017 184.296M233.771 183.318C231.925 185.224 230.548 187.32 230.577 189.965 230.667 192.481 231.506 194.986 234.071 196.124 236.336 194.447 239.261 192.421 242.075 191.892 243.453 193.549 245.569 194.656 246.836 195.654 247.715 194.587 250.519 192.311 251.298 191.602 252.036 190.844 251.298 189.796 250.519 190.784 249.92 191.692 247.944 191.033 247.375 190.105 247.375 189.027 246.347 177.709 246.806 177.19 245.169 175.363 242.355 171.261 240.458 171.461 237.704 171.74 233.582 175.683 232.693 176.97 232.025 177.938 232.893 182.6 233.422 183.049 233.562 183.158 233.632 183.198 233.771 183.318M226.395 156.38C228.122 161.27 232.174 162.818 235.199 163.047 236.097 161.37 237.764 158.825 238.682 157.647 240.039 155.841 238.662 154.763 237.704 156.839 236.965 158.446 233.043 156.689 231.625 155.322 229.719 153.545 228.531 148.874 230.048 147.237 231.585 145.581 233.791 146.339 236.636 146.259 238.512 146.169 238.911 144.433 239.231 143.554 238.333 143.125 236.975 142.367 235.199 141.289 233.362 142.457 230.548 144.862 229.32 145.87 227.803 147.158 224.679 151.609 226.395 156.38M225.298 191.852 227.523 189.386C225.018 188.927 226.186 188.947 224.858 187.73L224.779 177.539 221.525 172.758 220.287 172.928 215.187 177.699C213.83 178.877 215.027 179.446 216.594 178.138L219.968 179.885 220.048 190.684C220.337 192.011 221.515 192.321 223.162 194.018L225.298 191.852ZM267.796 250.669C267.796 250.669 269.862 248.433 269.852 246.836 269.842 244.67 267.806 243.093 267.806 243.093 269.563 243.592 273.725 245.938 275.212 246.916L267.796 250.669ZM280.871 246.726 280.871 246.447C276.3 245.788 272.717 242.594 268.535 241.007 262.756 238.822 256.627 243.283 256.627 243.992 256.627 245.549 258.264 246.347 262.945 243.403 259.282 247.645 263.444 251.088 263.444 251.088 261.927 250.859 259.751 250.349 258.364 249.561 258.085 251.088 260.191 251.657 261.199 252.316 268.944 255.51 274.054 248.044 280.871 246.726M333.32 175.653C332.133 176.871 330.047 178.268 328.1 180.424 329.717 180.543 331.055 180.883 331.833 182.44 332.632 183.977 331.963 190.454 332.073 192.95 332.202 195.375 333.67 195.884 335.596 197.89 337.512 197.401 342.862 195.165 344.658 193.928 344.499 195.914 347.014 198.15 348.501 198.589 349.489 197.501 350.577 196.902 352.034 195.545 350.607 194.587 350.797 194.467 350.258 192.56 349.839 190.734 350.358 183.807 350.407 180.843 349.28 179.126 347.413 177.07 345.517 175.643 344.169 176.871 342.363 178.517 340.237 180.743 341.814 180.533 344.928 181.162 345.078 182.49 345.167 184.206 345.437 187.959 345.078 190.874 344.728 193.808 336.824 192.461 336.714 190.484 336.544 188.448 337.123 182.6 337.163 179.835 336.055 178.138 335.396 177.2 333.32 175.653M337.273 152.867C337.852 149.952 339.898 148.754 340.836 147.886 342.163 149.363 343.501 151.03 345.497 151.03 347.443 151.05 349.479 150.142 350.108 149.323 348.501 148.026 344.828 144.163 344.09 143.435 342.233 144.473 334.159 148.665 333.48 153.495 332.502 160.632 334.757 162.059 337.891 165.971 339.658 168.197 342.612 168.307 343.94 167.958 345.387 166.96 350.667 161.939 351.256 161.31 351.785 160.692 351.016 160.133 350.358 160.761 349.709 161.36 349.968 161.62 349.09 161.75 348.192 161.899 344.599 162.498 342.503 161.41 339.898 160.033 336.484 156.809 337.273 152.867M314.736 152.088C314.926 156.899 312.42 161.949 309.706 164.235 314.407 163.017 315.025 160.202 317.6 156.899 319.028 159.005 321.663 161.54 323.599 162.638 324.956 161.74 328.809 157.418 329.647 156.52 326.873 155.781 321.513 152.946 320.175 149.952 319.117 147.736 319.377 146.678 320.425 144.932 321.363 146.159 327.881 149.164 330.815 144.153 327.611 142.986 324.727 140.88 323.749 139.183 322.89 139.891 320.026 143.015 318.409 144.014 318.04 142.297 315.405 140.44 313.259 140.061 312.57 140.81 307.53 144.642 305.234 145.76 304.525 146.1 304.795 147.637 305.783 147.247 306.721 146.838 308.268 145.66 310.075 144.802 312.161 145.62 314.526 147.736 314.736 152.088M313.818 175.184C311.891 176.142 316.383 177.919 316.083 177.839 316.013 182.919 314.985 191.233 316.742 193.878 317.82 195.495 320.275 196.553 321.922 195.914 323.499 195.285 325.515 192.131 326.114 191.612 327.292 190.734 326.284 189.796 325.316 190.704 324.347 191.612 321.712 190.963 321.363 190.055 321.084 189.107 320.754 178.008 321.213 177.779 321.213 177.779 324.387 177.709 325.226 177.739 325.894 177.739 325.934 175.723 325.286 175.723 324.128 175.703 321.583 175.473 321.433 175.014 321.054 173.966 321.523 170.593 322.182 169.215 322.86 167.828 321.573 167.219 321.054 168.576 320.525 170.024 317.191 173.527 313.818 175.184M295.623 178.517C296.701 176.861 297.379 176.541 298.248 176.541 299.036 176.591 302.04 178.657 301.881 180.054 302.03 180.963 302.06 182.849 302.05 184.775 299.795 185.045 298.208 185.304 295.672 183.168 295.213 182.809 295.084 179.386 295.623 178.517M296.98 185.973C298.637 186.901 299.475 186.322 302.04 186.053 302.03 187.67 301.99 189.127 301.99 189.906 300.853 190.714 299.455 191.423 297.858 192.221 296.581 191.163 294.714 190.275 296.98 185.973M294.904 184.466C293.517 185.783 291.021 189.187 291.071 191.712 291.111 194.287 292.349 196.762 293.836 198.16 296.391 196.383 297.988 193.928 302.22 192.301 302.749 194.277 304.146 194.577 305.793 195.834 306.791 194.756 310.394 190.325 311.183 189.556 311.981 188.798 311.522 188.019 310.384 188.798 309.256 189.556 308.468 189.087 306.572 187.051 306.641 185.943 306.442 176.91 306.891 176.411 305.154 174.555 303.567 172.02 301.531 172.209 298.557 172.449 294.784 177.629 293.846 178.976 293.107 179.945 293.886 183.657 294.445 184.127 294.634 184.286 294.724 184.306 294.904 184.466M277.577 167.289C277.667 169.734 278.565 190.734 278.296 193.658 278.126 195.325 280.362 197.092 282.408 198.479 283.396 197.271 285.562 194.137 287.339 192.82 288.386 191.952 287.658 191.393 286.849 191.712 285.243 192.461 283.626 191.882 283.466 190.015 283.316 188.149 283.316 170.074 283.466 167.469 282.228 167.469 278.735 167.399 277.577 167.289M276.06 152.048C276.15 160.642 279.563 161.36 283.476 163.616 287.179 165.712 293.387 165.283 298.048 164.055 299.815 163.536 300.773 163.436 300.713 164.963 300.713 165.912 302.05 165.712 302.05 165.003 302.05 164.295 302.11 157.098 302.11 156.3 302.11 155.402 300.813 155.531 300.813 156.3 300.813 157.508 300.813 157.857 299.635 159.574 296.431 164.315 288.406 164.125 284.115 158.326 282.647 156.35 281.31 153.715 283.007 153.216 284.694 152.697 289.864 153.765 293.267 154.054 295.313 154.184 300.034 154.663 300.623 155.003 301.142 155.392 301.94 155.891 301.94 154.863 301.99 153.855 301.99 150.541 301.99 149.523 301.99 148.535 301.222 149.004 300.643 149.353 300.064 149.763 295.034 150.601 293.018 150.95 290.991 151.33 284.753 151.829 283.107 151.27 281.43 150.711 281.989 147.347 283.486 145.411 287.838 139.652 296.621 140.061 299.795 144.842 300.882 146.509 300.882 146.898 300.882 148.156 300.882 148.904 302.14 148.994 302.14 148.156 302.22 147.347 302.24 138.644 302.24 137.955 302.24 137.277 300.962 137.027 300.962 137.955 300.962 138.594 299.565 138.963 298.188 138.594 295.463 137.726 287.508 138.963 283.965 140.9 280.821 142.696 275.99 146.848 276.06 152.048M309.845 102.124C308.228 101.934 302.879 102.383 300.952 102.683 299.026 102.982 299.026 103.921 300.633 104.11 302.23 104.28 302.539 104.609 303.388 106.765 304.156 108.931 300.304 118.762 299.345 121.078 298.218 119.391 294.125 110.398 294.125 109.18 294.125 108.312 295.932 107.434 296.701 107.224 298.218 106.755 298.178 105.717 297.04 105.488 293.836 105.028 282.578 104.04 280.591 103.801 279.154 103.671 278.495 105.338 280.242 105.338 282.049 105.388 283.925 104.849 285.891 107.743 288.167 111.007 295.303 126.357 297.01 132.805 297.848 131.458 304.975 110.807 305.384 108.612 305.893 106.476 307.4 104.39 309.496 103.771 311.652 103.192 311.452 102.274 309.845 102.124M319.497 105.867 321.613 104.03 321.613 101.086 318.768 98.3213 315.934 100.727 316.003 104.13 317.75 105.867 319.497 105.867ZM322.751 132.805 326.513 127.924C323.779 127.455 322.661 126.946 320.754 124.771L320.834 112.644 316.992 108.801 315.674 108.951 309.646 114.241C309.027 115.159 310.644 115.159 311.452 114.061L315.824 116.566 316.013 128.304C316.353 129.711 317.511 131.068 319.247 132.805L322.751 132.805ZM347.763 111.995C346.615 111.995 338.919 112.155 338.72 111.716 338.151 110.069 338.011 108.063 339.339 105.268 339.997 103.881 338.72 103.292 338.221 104.689 337.742 106.056 333.879 111.376 329.877 113.103 327.821 113.911 332.382 115.808 332.073 115.718 332.053 120.848 332.791 128.543 333.879 131.627 334.558 133.464 336.644 136.448 338.081 135.54 339.009 134.961 341.025 130.969 341.654 130.46 342.762 129.561 341.674 128.014 340.746 128.943 339.708 129.841 338.84 128.433 338.56 127.495 338.211 126.587 337.273 115.309 337.752 115.089 337.752 115.089 346.854 113.991 347.763 113.991 348.381 113.991 348.411 111.995 347.763 111.995M361.756 133.903C360.508 133.973 359.42 134.302 357.823 135.071 356.516 134.003 353.112 129.891 355.617 125.3 355.268 125.09 354.909 124.91 354.579 124.701 356.895 125.998 359.59 127.126 361.716 127.815 361.686 129.641 361.636 131.298 361.636 131.887 361.626 132.655 361.686 133.284 361.756 133.903M361.726 126.687C359.33 125.828 354.599 123.603 352.883 122.185 352.424 121.826 352.384 121.617 352.943 120.728 354.03 119.111 355.278 117.694 356.146 117.754 356.895 117.754 361.706 120.329 361.546 121.686 361.716 122.635 361.736 124.651 361.726 126.687M364.65 138.963 369.521 133.634C369.521 133.634 367.355 131.937 366.077 130.36 366.077 129.252 366.077 118.582 366.546 118.013 362.883 114.75 360.219 114.341 358.632 114.54 355.667 114.989 352.633 118.792 351.665 120.06 350.966 121.068 351.146 122.335 351.665 122.804 352.254 123.283 353.022 123.772 353.831 124.261 353.691 124.182 353.561 124.102 353.422 124.042 352.024 125.349 350.008 129.102 350.078 131.657 350.108 134.222 352.414 137.945 353.961 139.333 355.677 138.005 358.222 135.779 361.955 135.051 362.374 136.857 363.233 137.945 364.65 138.963M364.82 167.139C363.562 166.52 358.991 162.997 357.943 160.292 356.576 156.649 356.576 152.617 360.448 150.252 363.472 151.369 367.006 154.344 367.325 157.079 367.764 160.642 366.736 164.844 364.82 167.139M368.942 165.702C370.269 163.297 372.226 159.404 372.106 156.44 371.936 152.797 369.69 147.397 364.351 145.611 357.574 148.026 353.382 153.366 353.202 159.693 353.072 163.386 356.226 171.012 362.724 171.062 364.72 169.135 366.836 167.089 368.942 165.702M375.33 184.127C374.531 183.178 372.365 181.382 370.419 180.014 369.301 180.933 367.006 182.6 365.548 183.368 364.46 182.14 363.013 180.444 360.807 178.727 359.48 179.635 355.647 183.129 354.03 184.047 356.366 184.107 359.839 184.875 359.969 187.041 360.049 188.798 359.839 199.767 359.969 201.773 361.396 202.072 363.083 201.932 365.159 201.813 365.259 200.256 365.229 187.62 365.259 186.083 365.958 185.694 366.776 185.304 367.185 184.945 367.984 185.544 370.429 188.348 371.846 189.107 372.814 188.358 375.34 186.143 376.457 185.095 377.625 183.927 376.358 183.178 375.33 184.127M375.33 160.951C376.208 161.211 377.795 161.45 379.432 161.57 380.46 161.7 380.12 159.983 379.332 159.654 378.533 159.364 376.767 159.025 375.679 159.005 374.501 159.005 373.952 160.522 375.33 160.951M379.472 155.861C378.623 155.541 376.857 155.222 375.729 155.222 374.611 155.222 374.012 156.809 375.409 157.178 376.298 157.428 377.945 157.717 379.522 157.797 380.609 157.887 380.26 156.19 379.472 155.861M407.178 424.805C405.013 435.414 401.36 445.235 394.972 454.368 390.51 460.845 388.694 448.26 392.537 436.073 398.016 433.887 403.466 429.655 407.178 424.805M401.1 426.941C386.848 441.014 365.479 435.923 348.641 443.449 333.38 449.018 322.321 463.121 306.322 466.694 301.621 468.211 300.843 470.567 303.847 470.487 305.603 470.437 315.355 480.618 330.965 472.773 336.175 470.148 352.364 461.125 355.098 460.616 346.335 468.96 341.944 476.416 334.109 480.817 329.318 483.502 309.795 490.499 290.323 486.716 281.699 485.029 275.052 492.994 277.258 492.814 281.869 491.586 287.049 492.205 290.163 496.287 295.812 500.709 303.996 506.228 311.043 498.004 313.379 495.279 324.567 489.481 335.067 500.13 323.888 499.551 325.006 519.643 303.827 517.287 295.982 517.237 278.665 499.302 273.735 504.841 264.981 514.672 292.539 524.014 280.601 536.38 269.822 547.549 256.947 527.488 256.947 527.488 263.674 530.312 276.08 532.119 270.621 521.19 268.455 516.848 264.323 512.945 264.323 504.911 263.374 500.919 238.712 536.67 222.393 520.521 215.985 514.173 203 500.25 191.233 494.95 222.383 492.295 227.124 504.771 228.611 506.767 238.572 520.212 247.784 506.558 249.9 504.162 253.144 500.469 257.735 495.389 256.108 494.611 244.032 488.882 230.228 487.664 219.918 492.395 241.996 462.053 259.163 490.469 259.163 490.459 261.578 491.966 258.544 472.473 236.716 471.395 223.082 470.727 211.075 482.993 201.683 482.983 194.038 482.973 170.852 467.313 165.403 453.42 178.897 463.51 196.094 469.299 206.813 462.902 226.964 450.885 252.356 469 253.563 466.844 247.924 462.432 235.099 445.245 200.495 455.047 187.061 462.762 181.402 449.328 173.158 449.098 187.181 436.652 196.912 442.98 201.813 443.359 202.98 443.359 195.964 437.59 191.043 437.071 152.797 433.089 128.573 422.579 128.573 422.579 128.374 422.579 131.757 414.874 148.206 420.433 148.206 420.433 133.464 411.41 133.584 399.803 134.063 392.646 137.516 384.991 132.047 379.033 154.244 378.124 138.484 409.075 154.064 417.059 154.394 417.189 149.473 409.664 156.41 403.825 159.634 412.917 167.558 417.618 173.128 419.086 174.435 418.367 176.052 415.582 176.052 415.592 170.183 405.891 169.415 394.593 170.992 381.647L171.221 381.518C172.489 381.578 174.625 385.969 176.122 389.193 179.356 396.16 179.276 406.17 185.734 414.425 189.307 418.976 191.522 423.517 194.726 425.723 196.114 422.499 195.086 416.96 194.866 415.483 194.137 410.223 190.844 401.01 199.836 392.886 204.038 405.023 209.757 401.499 210.526 407.318 211.594 415.473 211.245 414.175 210.406 420.433 210.835 429.056 218.67 431.492 225.627 437.001 241.317 445.535 251.737 450.156 258.564 461.095 261.897 442.64 212.093 438.957 218.521 403.356 217.852 389.133 220.287 387.945 210.217 379.262 230.198 379.851 241.087 412.658 242.175 418.636 244.171 429.635 250.849 430.214 260.021 444.557 261.338 445.036 243.622 406.34 264.752 373.204 264.752 373.204 271.868 390.421 268.515 401.709 266.488 408.506 268.365 416.031 268.744 420.293 269.133 424.645 267.876 404.583 282.967 394.223 283.905 401.809 291.171 413.556 284.284 426.152 275.9 441.473 275.292 435.963 275.162 454.807 275.92 454.478 278.086 441.812 283.845 434.626 296.002 419.435 287.319 411.261 299.176 398.096 300.124 404.673 301.801 402.068 302.509 407.937 304.096 421.102 290.363 435.494 293.397 435.055 296.89 434.556 302.509 431.522 304.396 421.531 304.396 421.531 309.456 430.653 304.825 433.688 296.441 439.187 294.704 445.116 296.002 451.763 302.729 443.728 311.911 434.835 310.324 423.407 311.083 416.501 318.559 413.706 320.056 397.677 320.305 395.012 322.96 391.788 325.615 390.381 324.447 399.383 331.454 408.696 323.489 419.724 325.306 420.693 332.033 411.131 341.864 414.614 322.122 418.167 327.881 439.556 312.76 449.457 308.198 452.442 308.977 455.795 307.62 456.174 321.124 455.416 331.534 439.327 333.34 438.099 346.914 428.927 349.878 427.519 355.308 412.638 357.434 406.979 355.887 404.484 363.412 396.848 366.716 404.374 361.915 419.974 360.778 423.337 358.352 430.524 349.809 436.732 351.615 436.732 388.005 420.673 387.546 409.893 396.249 398.385 398.864 393.994 411.8 386.368 416.64 385.66 415.463 388.065 410.432 392.097 410.193 396.449 409.754 404.494 407.159 409.394 403.086 415.852 405.352 418.656 409.684 410.552 414.135 414.624 408.286 416.551 405.661 423.088 401.1 426.941M367.784 415.522C368.832 411.75 368.832 409.155 369.321 405.821 369.541 404.394 369.571 404.563 369.641 403.366 369.66 402.967 379.921 411.899 380.5 412.269 377.925 415.493 375.719 416.65 373.264 418.936 371.527 417.439 367.684 415.892 367.784 415.522M370.898 421.092C366.157 425.254 363.063 426.741 364.091 424.665 365.249 422.359 366.107 420.403 366.746 418.676 366.956 418.117 370.898 421.092 370.898 421.092M417.399 380.739C413.057 381.867 401.619 386.438 398.854 390.93 400.322 366.197 392.327 341.904 389.792 336.035 384.831 324.607 392.008 362.634 392.497 371.387 392.507 371.776 351.445 318.618 376.238 359.56 382.666 370.17 392.696 377.096 392.706 377.276 392.876 384.662 392.377 390.091 390.98 394.054 388.454 396.07 335.067 323.01 364.58 373.603 368.243 379.881 389.642 398.864 389.472 399.254 388.115 402.138 385.71 406.33 382.386 409.424 381.827 408.865 370.07 400.202 369.99 399.673 369.102 394.024 369.062 388.694 362.085 392.696 362.085 392.696 335.785 362.075 347.962 383.534 353.282 392.926 356.775 393.954 358.202 395.631 358.202 395.631 354.12 401.16 352.813 407.039 352.284 409.384 330.017 382.346 338.75 399.334 341.554 404.773 351.735 410.722 351.625 411.101 350.587 414.634 349.529 418.068 348.411 420.303 347.014 423.128 327.451 438.718 327.481 438.698 327.481 438.698 331.304 426.342 339.618 420.303 344.359 416.83 344.379 417.589 347.523 415.612 347.453 413.786 345.696 410.802 343.421 410.023 340.566 409.015 331.304 410.692 331.304 410.692 332.172 406.061 328.12 396.08 328.17 385.101 324.677 385.45 318.569 390.84 317.081 393.904 316.013 412.089 312.061 406.64 308.358 419.734 304.336 414.245 308.638 406.36 304.695 401.22 299.276 394.153 298.457 389.393 297.649 380.699 298.916 379.991 304.456 373.882 299.415 361.057 298.597 340.896 307.6 333.19 291.5 319.088 292.858 318.648 293.826 308.548 293.826 308.538 305.693 314.866 303.338 301.212 307.959 298.527 315.295 294.265 313.967 289.854 310.674 284.354 331.663 290.323 309.726 304.675 319.227 304.985 326.114 305.194 330.735 303.448 333.729 298.816 336.913 293.916 333.181 290.922 342.083 282.977 342.972 282.178 345.337 276.879 338.281 275.431 336.734 275.102 338.291 269.074 338.291 269.074 332.642 273.854 330.855 280.591 321.772 276.34 317.121 274.154 314.097 276.3 312.191 277.218 312.191 277.218 311.223 273.415 315.075 272.138 325.016 268.794 327.481 264.822 326.932 262.656 325.595 257.486 325.186 262.656 325.475 257.216 325.595 255.05 328.11 252.116 330.196 249.601 336.943 241.467 341.714 244.511 343.441 245.229 347.363 242.195 348.052 242.415 351.695 240.967 357.943 238.512 371.477 242.584 379.042 246.098 382.715 247.764 387.097 248.753 391.369 247.814 391.329 250.02 389.782 251.208 388.245 251.647 385.879 252.386 383.065 251.647 383.254 253.374 383.354 254.382 386.598 254.561 388.614 255.11 399.813 258.174 414.335 268.215 404.803 266.099 403.675 265.85 411.67 272.068 417.708 280.162L439.077 300.922C438.099 302.11 430.594 301.032 406.859 278.795 403.486 281.809 435.734 306.112 449.038 331.903 447.89 332.701 431.302 326.663 425.324 320.495 416.101 310.963 405.512 286.72 401.16 290.263 400.641 290.462 418.686 318.559 427.599 335.227 432.101 343.66 435.804 355.747 436.113 364.85 437.54 409.734 430.783 406.29 430.783 406.29 420.273 370.918 415.353 329.837 400.002 310.883 393.904 303.288 416.431 344.02 417.399 380.739M433.987 140.221C433.897 139.532 433.747 138.474 433.538 136.987 433.218 134.672 426.551 133.324 421.85 135.38 415.263 138.255 398.775 147.677 392.746 145.9L392.746 122.695C407.598 129.132 413.397 123.313 418.167 123.313 432.829 123.313 433.558 136.987 433.558 136.987 433.757 138.474 433.887 139.522 433.987 140.221M418.746 171.99C431.622 170.104 433.568 185.304 433.568 185.304L433.538 185.304C430.374 182.779 423.996 181.641 419.684 184.426 405.302 193.688 392.337 193.788 392.337 193.788L392.337 170.583C392.337 170.583 395.062 175.443 418.746 171.99M387.985 219.129C364.62 220.726 316.163 207.422 303.837 207.422 278.416 207.422 266.119 217.343 266.119 217.343 266.119 217.343 266.149 101.954 266.119 97.7923 266.119 97.7923 299.525 82.1324 323.828 91.0952 353.591 102.084 387.985 97.2134 387.985 97.2134L387.985 219.129ZM291.201 237.145C291.98 241.776 287.688 242.934 287.698 242.924 294.365 244.481 297.549 240.508 298.856 238.003 301.421 248.653 290.682 249.252 287.339 249.89 287.329 249.89 292.778 251.457 293.057 255.001 293.766 264.003 299.555 263.235 300.803 262.526 300.603 263.614 298.816 269.044 292.309 264.143 291.201 265.231 294.086 266.918 294.654 271.379 295.393 277.028 295.203 282.268 301.731 285.722 297.729 288.905 293.018 280.611 292.608 281.609 292.149 282.717 298.168 285.762 291.54 301.392 288.516 299.655 290.203 299.984 286.69 295.822 284.005 293.577 282.947 293.068 285.193 296.77 289.095 301.661 290.023 312.83 288.676 315.844 285.452 314.446 286.29 311.871 282.478 308.368 282.129 309.865 283.646 317.271 287.568 320.814 294.365 326.942 296.76 334.348 296.89 335.805 297.429 341.375 295.672 348.711 295.014 355.897 291.76 355.428 288.985 346.176 288.197 346.695 287.239 347.323 288.606 355.747 294.754 361.496 297.729 370.189 296.531 374.851 295.742 375.17 294.694 375.619 291.391 366.287 289.584 367.904 298.327 390.151 292.209 397.896 289.894 404.753 288.087 397.727 287.169 392.467 284.903 384.512 280.142 388.255 278.995 393.804 273.176 398.874 273.176 389.802 267.926 367.904 263.774 362.794 263.584 362.564 256.258 382.426 252.925 391.269 248.593 402.717 247.924 417.04 252.925 428.198 242.125 412.848 240.967 384.252 250.28 380.4 251.088 378.354 249.721 371.627 247.645 372.465 247.046 375.759 247.445 378.563 244.72 381.777 237.574 379.691 240.828 370.968 241.477 368.074 250.749 356.945 244.96 354.38 244.521 354.669 243.523 357.214 242.644 360.338 239.81 361.496 233.861 351.266 237.674 335.227 248.972 323.23 249.451 318.758 243.912 326.563 240.319 326.294 239.381 317.66 242.505 302.699 258.464 302.15 255.42 301.252 253.793 300.703 253.044 298.158 257.865 297.439 272.996 296.291 270.501 284.354 269.064 285.781 268.604 287.927 264.662 290.333 262.007 291.95 259.123 292.089 257.626 289.754 264.642 287.428 262.326 278.895 253.164 281.4 250.359 282.168 246.257 279.234 246.058 275.98 248.094 278.016 252.226 276.509 254.611 274.962 264.922 268.265 271.209 277.956 272.597 280.052 273.016 280.052 277.218 270.351 262.586 267.746 261.358 264.333 258.015 258.314 248.084 259.073 244.81 247.525 234.909 253.214 235.238 258.444 224.709 250.699 235.418 240.918 239.67 239.41 242.614 239.65 241.966 248.982 247.136 247.405 248.383 247.036 243.113 240.977 245.139 238.243 249.88 235.528 249.781 241.716 252.116 239.41 253.274 235.358 257.935 233.093 261.768 232.653 272.527 231.136 280.881 242.924 291.201 237.145M260.52 217.253C260.52 217.253 244.68 208.66 226.096 207.422 208.121 206.234 171.81 220.587 143.934 218.69L143.934 96.1854C143.934 96.1854 175.723 100.407 188.788 95.3769 233.192 78.2498 260.52 97.3831 260.52 97.3831L260.52 217.253ZM138.275 191.622 123.144 191.622 123.144 176.731 138.275 176.731 138.275 191.622ZM138.275 139.772 123.144 139.772 123.144 124.89 138.275 124.89 138.275 139.772ZM105.348 195.914C87.5919 195.914 87.5919 169.904 105.348 169.904 122.415 169.904 122.525 195.914 105.348 195.914M105.348 143.934C87.9911 143.934 88.3604 117.914 105.348 117.914 122.415 117.914 122.415 143.934 105.348 143.934M219.718 265.46C216.554 260.051 223.501 254.891 223.501 254.891 223.291 270.102 242.734 259.662 252.885 264.502 255.33 265.62 257.037 267.766 258.045 270.032 247.136 262.476 226.954 277.807 219.718 265.46M167.159 394.283C167.249 399.493 166.87 403.356 168.397 408.656 170.862 416.65 169.624 414.185 166.271 411.44 163.606 408.476 161.111 406.031 159.823 402.567 159.504 400.092 161.48 399.962 167.159 394.283M128.004 286.76 127.705 286.46C127.356 286.46 102.433 302.18 86.2445 294.634 98.3013 287.967 140.081 261.418 151.499 253.893 156.899 255.05 159.075 253.114 160.791 251.906 156.42 252.176 141.958 254.432 149.273 241.486 152.078 253.094 172.379 242.415 179.665 240.738 199.966 236.067 199.826 257.765 198.09 266.738 197.441 270.082 204.308 272.457 207.691 271.978 201.873 286.31 191.932 272.796 190.754 278.266 190.275 280.482 183.618 282.228 183.648 287.728 183.687 295.253 186.632 291.141 186.901 296.97 187.201 302.619 184.496 298.218 185.105 304.336 186.083 314.037 202.132 303.038 208.769 305.673 212.083 306.981 214.289 309.955 217.522 309.366 218.461 308.588 218.042 304.915 217.892 303.607 217.552 300.523 211.853 300.164 209.198 295.952 206.893 292.289 211.823 281.24 214.488 277.996 218.321 296.221 235.408 290.502 237.953 309.676 239.56 315.095 232.085 321.124 238.153 329.937 233.642 334.318 228.232 355.068 237.664 364.81 236.067 369.221 233.961 379.402 242.355 385.35 239.53 391.369 240.179 398.715 242.554 406.2 237.334 406.22 238.372 376.877 207.043 375.948 206.344 375.729 206.174 379.272 207.073 380.859 210.825 387.456 215.866 387.067 214.788 402.587 214.418 407.897 211.304 401.659 209.648 400.192 205.855 396.838 202.921 396.399 201.274 385.48 188.548 395.461 189.796 407.538 190.584 413.686 190.594 413.696 187.78 406.031 184.566 398.166 184.396 397.747 197.491 381.987 199.577 378.244 226.016 330.665 182.51 393.624 182.42 393.415 180.074 387.995 178.028 383.324 176.651 381.837 176.98 381.178 184.246 373.084 187.52 366.257 207.961 323.679 175.373 380.43 174.206 379.382 171.74 377.166 169.704 374.391 168.147 375.389 167.778 381.927 166.221 381.039 166.67 387.716 163.267 392.267 155.951 399.413 150.84 402.957 150.84 402.957 149.563 391.139 149.902 390.72 152.467 387.596 162.528 376.817 164.584 373.593 198.09 320.974 148.904 386.269 148.814 385.71 148.465 383.634 145.77 380.19 142.906 377.266 142.906 377.266 153.765 362.464 156.44 356.965 176.821 315.055 140.061 375.539 139.652 375.32 138.774 374.861 138.674 374.87 137.656 374.511 136.628 374.162 138.774 362.444 140.201 355.378 142.956 341.415 135.56 352.673 133.544 374.801 131.657 375.1 127.066 375.569 125.329 377.156 126.447 383.065 127.855 378.513 130.33 384.193 133.294 390.99 126.198 402.138 132.376 410.292 134.761 413.446 134.891 412.917 134.432 414.983 130.639 414.714 128.334 414.634 125.938 417.918 121.277 396.719 121.417 386.518 122.505 364.97 122.994 355.178 126.208 340.367 124.741 340.077 123.343 339.808 101.146 396.968 95.7862 408.177 86.4241 405.013 101.615 355.548 120.908 331.733 122.724 324.158 110.797 339.419 103.661 345.497 97.1236 351.066 88.8495 358.332 79.8368 355.847 91.4145 343.601 117.954 320.694 120.908 314.965 123.383 310.055 102.803 330.236 81.0544 322.731 95.1174 315.205 127.954 298.437 128.004 286.76M127.785 425.952C131.418 428.418 135.7 429.506 139.622 431.182 144.483 443.888 139.742 456.384 137.007 451.204 132.226 442.121 130.34 434.576 127.785 425.952M462.911 355.268 462.892 72.0717C235.388 50.1338 63.6778 72.0717 63.6778 72.0717 63.6778 72.0717 63.6778 355.248 63.6778 355.308 81.813 547.28 261.608 569.826 263.315 569.517 295.433 563.728 446.174 533.426 462.911 355.268" fill="#800000" fill-rule="nonzero" fill-opacity="1" transform="matrix(1 0 0 1.0001 88 45.466)"/></g></g></g></g></svg>